<svg xmlns="http://www.w3.org/2000/svg" width="256" height="256"><path fill-opacity=".016" d="M0 128.004v128.004l128.25-.254 128.25-.254.254-127.75L257.008 0H0v128.004m.485.496c0 70.4.119 99.053.265 63.672.146-35.38.146-92.98 0-128C.604 29.153.485 58.1.485 128.5" fill="#fff" fill-rule="evenodd"/><path fill-opacity=".239" d="M110.271 54.051c.942 10.392 7.197 15.902 18.086 15.933 4.255.012 5.733.358 5.404 1.266-.25.688-1.533 4.293-2.853 8.013-1.829 5.155-2.757 6.611-3.904 6.123-15.234-6.474-27.464-7.965-35.827-4.367-10.093 4.342-17.776 16.337-18.885 29.481-.686 8.141 2.054 23.142 6.04 33.069 12.347 30.751 31.177 46.575 45.168 37.957 5.105-3.144 7.169-3.129 12.938.095 13.169 7.36 28.165-3.621 41.133-30.121 9.37-19.147 12.289-39.328 7.489-51.782-2.934-7.614-7.536-13.499-13.383-17.114-3.894-2.408-6.149-3.02-12.476-3.386-6.715-.389-8.945-.037-17.101 2.695-5.158 1.728-9.586 2.934-9.841 2.679-1.015-1.014 3.036-10.481 7.302-17.068 4.584-7.077 5.311-10.742 2.247-11.326-1.065-.203-2.281.815-3.278 2.745l-1.587 3.067-3.458-3.459c-2.479-2.479-5.517-4.07-10.722-5.616-3.995-1.186-8.567-2.828-10.161-3.648l-2.898-1.492.567 6.256m11.412 6.032C123.361 61.761 135 66.981 135 66.056c0-.472-1.556-1.776-3.458-2.899-3.972-2.343-11.465-4.68-9.859-3.074" fill="#fff" fill-rule="evenodd"/><path fill-opacity=".178" d="M111.079 55.041c1.118 9.476 6.697 14.185 17.175 14.495 3.164.093 5.826.348 5.915.567.274.677-4.372 14.349-5.177 15.232-.419.459-4.951-.604-10.071-2.362-21.075-7.236-34.346-2.842-42.337 14.02-6.19 13.06-4.34 33.235 4.819 52.57 9.921 20.944 20.583 32.175 32.255 33.977 2.961.457 4.988.006 8.842-1.969 6.111-3.132 8.956-3.213 13.5-.385 4.387 2.73 12.113 2.921 16.864.417 17.702-9.328 35.176-45.453 33.91-70.103-.95-18.496-13.552-32.5-29.245-32.5-3.937 0-13.463 2.415-20.315 5.151-2.907 1.161-5.54 1.857-5.85 1.547-1.113-1.114 1.948-8.363 7.341-17.384 3.02-5.053 5.196-9.665 4.834-10.25-1.209-1.957-3.473-1.093-5.03 1.919l-1.543 2.983-3.733-3.649c-2.646-2.586-6.061-4.422-11.733-6.308-4.4-1.462-8.707-2.98-9.571-3.372-1.375-.624-1.481.051-.85 5.404m9.054 4.49c2.563 2.611 14.875 8.266 15.564 7.15 1.099-1.779-7.19-6.523-14.197-8.126-2.788-.638-2.885-.569-1.367.976" fill="#fff" fill-rule="evenodd"/><path fill-opacity=".108" d="M161.813 80.683c.721.289 1.584.253 1.916-.079.332-.332-.258-.568-1.312-.525-1.165.048-1.402.285-.604.604m5.563 1.635c3.398 1.451 3.205 1.659-6.488 6.989-3.636 2-6.971 3.311-7.41 2.915-.439-.397-.543-.27-.231.283.615 1.088-23.653 15.174-25.361 14.72-.569-.151-.8.105-.514.569.482.779-12.564 8.474-13.468 7.943-.222-.13-.291-.049-.152.182.271.449-.266.773-20.752 12.529-7.425 4.261-13.807 8.243-14.181 8.848-.388.625-.979-.085-1.37-1.645-.379-1.509-.906-2.527-1.171-2.262-1.549 1.549 8.008 22.714 14.725 32.612 4.546 6.698 11.925 13.653 16.525 15.575 5.206 2.175 11.33 1.767 16.324-1.088 5.366-3.068 6.612-3.064 11.648.038 7.367 4.538 16.441 2.855 24.965-4.629 4.61-4.048 12.628-16.115 17.526-26.379 8.376-17.548 10.893-37.928 6.151-49.8-2.794-6.995-8.201-14.269-10.468-14.081-.909.075-1.418-.243-1.131-.707.576-.931-4.677-3.957-6.743-3.885-.715.025-.006.598 1.576 1.273m-92.297 48.265c.048 1.165.285 1.402.604.605.289-.722.253-1.585-.079-1.917-.332-.332-.568.258-.525 1.312" fill="#fff" fill-rule="evenodd"/></svg>