<svg xmlns="http://www.w3.org/2000/svg" width="256" height="256"><path fill="#fff" fill-opacity=".016" fill-rule="evenodd" d="M0 128.004v128.004l128.25-.254 128.25-.254.254-127.75L257.008 0H0v128.004m.485.496c0 70.4.119 99.053.265 63.672.146-35.38.146-92.98 0-128C.604 29.153.485 58.1.485 128.5"/><path fill="#fff" fill-opacity=".239" fill-rule="evenodd" d="M110.271 54.051c.942 10.392 7.197 15.902 18.086 15.933 4.255.012 5.733.358 5.404 1.266-.25.688-1.533 4.293-2.853 8.013-1.829 5.155-2.757 6.611-3.904 6.123-15.234-6.474-27.464-7.965-35.827-4.367-10.093 4.342-17.776 16.337-18.885 29.481-.686 8.141 2.054 23.142 6.04 33.069 12.347 30.751 31.177 46.575 45.168 37.957 5.105-3.144 7.169-3.129 12.938.095 6.58 3.678 12.634 3.039 20.129-2.123 7.631-5.255 13.461-12.957 20.438-26.998 6.507-13.094 8.526-19.636 9.971-32.313 1.92-16.828-3.99-30.995-15.831-37.957-4.214-2.477-5.526-2.723-14.145-2.655-7.801.062-10.812.568-16.838 2.829-4.036 1.514-7.57 2.522-7.852 2.239-1.06-1.06 2.892-10.389 7.251-17.119 4.584-7.077 5.311-10.742 2.247-11.326-1.065-.203-2.281.815-3.278 2.745l-1.587 3.067-3.458-3.459c-2.479-2.479-5.517-4.07-10.722-5.616-3.995-1.186-8.567-2.828-10.161-3.648l-2.898-1.492.567 6.256m11.237 5.962c.292.472 3.109 2.103 6.261 3.624a967.596 967.596 0 0 1 6.481 3.148c.412.21.75-.061.75-.603 0-.541-1.556-1.902-3.458-3.025-3.867-2.281-10.854-4.471-10.034-3.144"/><path fill="#fff" fill-opacity=".173" fill-rule="evenodd" d="M111.079 55.041c1.118 9.476 6.697 14.185 17.175 14.495 3.164.093 5.826.348 5.915.567.274.677-4.372 14.349-5.177 15.232-.419.459-4.956-.606-10.083-2.366-21.001-7.211-34.36-2.784-42.325 14.024-6.19 13.06-4.34 33.235 4.819 52.57 9.847 20.787 20.67 32.188 32.255 33.977 2.961.457 4.988.006 8.842-1.969 5.955-3.052 8.943-3.208 13.083-.683 4.936 3.009 8.874 3.453 14.389 1.621 9.844-3.269 19.236-14.268 28.078-32.879 6.654-14.007 8.282-20.745 8.374-34.644.073-11.041-.057-11.785-3.174-18.122-8.225-16.726-21.545-21.262-41.685-14.195C131.384 86.241 131 86.335 131 85.242c0-2.517 3.378-10.08 7.41-16.591 5.052-8.156 5.873-10.917 3.398-11.427-1.076-.222-2.265.76-3.267 2.697l-1.575 3.045-3.733-3.649c-2.646-2.586-6.061-4.422-11.733-6.308-4.4-1.462-8.707-2.98-9.571-3.372-1.375-.624-1.481.051-.85 5.404m9.054 4.49c2.563 2.611 14.875 8.266 15.564 7.15 1.099-1.779-7.19-6.523-14.197-8.126-2.788-.638-2.885-.569-1.367.976"/><path fill="#fff" fill-opacity=".107" fill-rule="evenodd" d="M161.813 80.683c.721.289 1.584.253 1.916-.079.332-.332-.258-.568-1.312-.525-1.165.048-1.402.285-.604.604m5.687 1.781c2.161.989 2.477 1.396 1.131 1.455-1.028.044-4.403 1.61-7.5 3.479-6.504 3.925-9.425 5.6-25.131 14.412-6.325 3.549-12.625 7.222-14 8.163-1.375.941-3.85 2.391-5.5 3.223-3.151 1.589-7.35 4.003-27 15.527-10.057 5.898-12.11 6.774-12.68 5.407-1.483-3.557-.708.881 1.041 5.963 4.546 13.21 13.844 28.615 21.568 35.735 8.349 7.696 16.419 9.236 24.423 4.66 5.366-3.068 6.612-3.064 11.648.038 10.507 6.471 22.709.916 33.533-15.267 10.342-15.463 16.105-30.953 17.511-47.067.821-9.415-1.392-18.438-6.489-26.455-2.993-4.709-10.944-10.781-14.001-10.692-.855.025-.204.663 1.446 1.419m-92.421 48.119c.048 1.165.285 1.402.604.605.289-.722.253-1.585-.079-1.917-.332-.332-.568.258-.525 1.312"/></svg>