<svg xmlns="http://www.w3.org/2000/svg" width="256" height="256"><path fill-opacity=".016" d="M0 128.004v128.004l128.25-.254 128.25-.254.254-127.75L257.008 0H0v128.004m.485.496c0 70.4.119 99.053.265 63.672.146-35.38.146-92.98 0-128C.604 29.153.485 58.1.485 128.5" fill="#229857" fill-rule="evenodd"/><path fill-opacity=".518" d="M1.655 1.829C.134 3.51 0 13.713 0 128.174c0 119.359.076 124.585 1.829 126.171C3.51 255.866 13.712 256 128.154 256h124.497l2.175-2.314 2.174-2.315V126.627c0-72.282-.373-124.515-.887-124.197-.487.301-1.442-.122-2.122-.941C252.909.185 237.267 0 128.033 0 8.473 0 3.241.076 1.655 1.829M.485 128c0 69.025.119 97.262.265 62.75.146-34.513.146-90.988 0-125.5C.604 30.737.485 58.975.485 128m89.182-21.333c-2.176 2.175.043 6.333 3.38 6.333 1.786 0 3.165-4.039 1.9-5.564-1.243-1.498-4.131-1.918-5.28-.769m5.675 9.884c-1.253 3.266 7.17 9.659 15.057 11.426 6.063 1.359 8.824.599 8.409-2.313-.249-1.751-1.167-2.269-4.808-2.716-5.093-.625-9.608-2.753-12.407-5.846-2.238-2.472-5.407-2.751-6.251-.551" fill="#229857" fill-rule="evenodd"/><path fill-opacity=".165" d="m131.4 73.921-4.695 6.045-3.699-3.341c-5.831-5.269-11.484-6.967-21.232-6.379-9.017.544-15.533 2.378-17.041 4.797-.679 1.09-.166 3.533 1.746 8.312l2.708 6.768-5.629 5.901c-3.342 3.504-6.923 8.658-8.817 12.688-2.779 5.917-3.238 8.08-3.571 16.848-.481 12.637 1.145 19.451 7.904 33.127 6.159 12.461 15.218 22.841 23.451 26.869 5.008 2.45 6.079 2.608 13.704 2.016 10.236-.794 12.273-.796 22.271-.023 6.757.523 8.739.3 12.759-1.433 9.282-4.003 19.55-15.919 26.276-30.494 4.527-9.808 6.467-18.007 6.453-27.266-.022-14.44-4.412-24.83-14.4-34.077-7-6.481-15.068-10.582-25.292-12.857-7.601-1.691-7.773-1.947-4.065-6.074 2.749-3.06 2.008-6.763-1.434-7.16-2.275-.262-3.446.645-7.397 5.733M100 77.63c-7.325 1.26-7.01.934-5.246 5.426 2.415 6.147 8.676 12.713 13.313 13.962 3.984 1.073 10.994-.035 13.571-2.145 1.504-1.231.123-7.376-2.426-10.796-3.666-4.918-11.947-7.697-19.212-6.447m-10.429 28.941C86.686 109.457 88.4 113 92.681 113c3.151 0 4.412-4.727 1.775-6.656-2.351-1.719-2.967-1.69-4.885.227m5.386 9.51c-.971 1.814-.575 2.579 3.088 5.961 4.798 4.429 12.099 7.229 17.654 6.771 3.268-.269 3.801-.652 3.801-2.734 0-2.131-.66-2.557-5.5-3.553-6.286-1.295-10.663-3.392-13.407-6.424-2.41-2.662-4.219-2.669-5.636-.021" fill="#229857" fill-rule="evenodd"/><path fill-opacity=".317" d="M133.699 71.912c-1.944 2.151-4.037 4.851-4.652 6-1.485 2.775-3.19 2.633-6.123-.509-4.616-4.946-9.671-6.813-18.424-6.807-4.675.004-10.39.724-13.75 1.733-5.174 1.554-5.749 2-5.74 4.449.005 1.497 1.122 5.112 2.482 8.033l2.473 5.311-5.505 5.374C71.725 107.93 67.841 127.479 74.327 146.5c10.324 30.272 30.112 46.549 48.642 40.011 3.787-1.336 4.732-1.322 9.184.134 6.209 2.031 14.153 1.354 20.572-1.754 13.936-6.746 29.027-32.383 30.856-52.419 2.236-24.49-14.009-45.476-39.081-50.487-9.401-1.879-9.189-1.679-5.665-5.315 3.368-3.474 3.908-5.527 1.965-7.47-1.957-1.957-3.372-1.416-7.101 2.712M96.5 77.905c-3.847.858-3.671 3.595.667 10.356 5.847 9.11 13.948 12.036 22.299 8.054 3.749-1.788 4.087-2.991 2.208-7.851-3.713-9.6-12.652-13.35-25.174-10.559m34.544 12.878c-.568 2.044-1.035 6.754-1.038 10.467-.006 6.428.106 6.75 2.354 6.75 1.299 0 4.019-1.125 6.045-2.5 4.225-2.867 5.857-3.094 7.555-1.048 1.991 2.398.288 5.095-5.052 8.002-6.512 3.544-14.625 4.356-21.98 2.2-5.587-1.637-10.928-5.633-10.928-8.175 0-.793-1.169-1.734-2.597-2.093-1.429-.358-4.618-2.193-7.086-4.078-4.324-3.3-4.579-3.366-6.971-1.799-1.366.895-3.912 3.655-5.659 6.133-9.401 13.337-9.831 29.357-1.283 47.856 10.715 23.192 25.783 33.145 39.465 26.07 1.675-.867 4.356-1.184 7.245-.859 11.499 1.296 24.244-10.216 33.509-30.268 6.405-13.863 7.995-29.265 4.217-40.855-2.994-9.183-14.781-15.853-33.552-18.985-3.01-.502-3.277-.302-4.244 3.182m-12.485 13.595-2.94 1.221 3.222 1.335c3.697 1.532 4.868.925 3.566-1.846-.803-1.711-1.243-1.792-3.848-.71" fill="#229857" fill-rule="evenodd"/></svg>